<svg aria-hidden="true" style="width:0;height:0;position:absolute;overflow:hidden" xmlns="http://www.w3.org/2000/svg"><defs><symbol id="icon-open" viewBox="0 0 46 32"><path style="stroke:var(--color1,#000)" stroke-width="2.286" d="M0 2.286h45.714M0 16h45.714M0 29.714h45.714"/></symbol><symbol id="icon-close" viewBox="0 0 32 32"><path d="m26.667 7.303-1.97-1.97-7.808 7.808-7.808-7.808-1.97 1.97 7.808 7.808-7.808 7.808 1.97 1.97 7.808-7.808 7.808 7.808 1.97-1.97-7.808-7.808 7.808-7.808z"/></symbol></defs><symbol id="icon-search" viewBox="0 0 32 32"><path fill="#fd5103" style="fill:var(--color1,#fd5103);stroke:var(--color1,#fd5103)" stroke="#fd5103" stroke-width="1.684" d="m21.79 22.982 7.335 7.335 1.191-1.191-7.336-7.336.459-.587a12.55 12.55 0 0 0 2.666-7.73l-4.316 9.508zm0 0-.587.459m.587-.459-.587.459m0 0a12.545 12.545 0 0 1-7.729 2.664l7.729-2.664zm-7.729 2.664C6.51 26.105.843 20.437.843 13.473S6.511.841 13.475.841c6.964 0 12.631 5.668 12.632 12.631L13.475 26.104zm10.947-12.631c0-6.038-4.909-10.947-10.947-10.947S2.527 7.436 2.527 13.474c0 6.038 4.909 10.947 10.947 10.947s10.947-4.909 10.947-10.947z"/></symbol><symbol id="icon-menu" viewBox="0 0 60 32"><path d="M2 0h56a2 2 0 1 1 0 4H2a2 2 0 1 1 0-4zM2 14h56a2 2 0 1 1 0 4H2a2 2 0 1 1 0-4zM2 28h56a2 2 0 1 1 0 4H2a2 2 0 1 1 0-4z"/></symbol></svg>